<svg width="64" height="64" viewBox="0 0 64 64" fill="none" xmlns="http://www.w3.org/2000/svg">
<rect y="5" width="64" height="54" rx="27" fill="#1A5AFD"/>
<path d="M53.3065 45.4174C52.4627 45.4174 51.7383 45.1191 51.1332 44.5226C50.5366 43.9174 50.2383 43.193 50.2383 42.3493C50.2383 41.514 50.5366 40.7981 51.1332 40.2015C51.7383 39.6049 52.4627 39.3066 53.3065 39.3066C54.1246 39.3066 54.8406 39.6049 55.4542 40.2015C56.0678 40.7981 56.3746 41.514 56.3746 42.3493C56.3746 42.9118 56.2298 43.4274 55.94 43.8961C55.6587 44.3564 55.288 44.7271 54.8278 45.0083C54.3675 45.2811 53.8604 45.4174 53.3065 45.4174Z" fill="white"/>
<path d="M28.0039 18.9028H34.2042L40.1744 30.1784H40.43L46.4002 18.9028H52.6005L43.0508 35.829V45.0847H37.5536V35.829L28.0039 18.9028Z" fill="white"/>
<path d="M22.6719 26.4327C22.5696 25.4015 22.1307 24.6003 21.3551 24.0293C20.5795 23.4583 19.527 23.1728 18.1974 23.1728C17.294 23.1728 16.5313 23.3006 15.9091 23.5563C15.2869 23.8034 14.8097 24.1486 14.4773 24.5918C14.1534 25.035 13.9915 25.5378 13.9915 26.1003C13.9744 26.5691 14.0724 26.9782 14.2855 27.3276C14.5071 27.677 14.8097 27.9796 15.1932 28.2353C15.5767 28.4824 16.0199 28.6998 16.5227 28.8873C17.0256 29.0662 17.5625 29.2196 18.1335 29.3475L20.4858 29.91C21.6278 30.1657 22.6761 30.5066 23.6307 30.9327C24.5852 31.3588 25.4119 31.883 26.1108 32.5051C26.8097 33.1273 27.3509 33.8603 27.7344 34.704C28.1264 35.5478 28.3267 36.5151 28.3352 37.606C28.3267 39.2083 27.9176 40.5975 27.108 41.7736C26.3068 42.9412 25.1477 43.8489 23.6307 44.4966C22.1222 45.1358 20.3026 45.4554 18.1719 45.4554C16.0582 45.4554 14.2173 45.1316 12.6491 44.4838C11.0895 43.8361 9.87074 42.8773 8.9929 41.6074C8.12358 40.329 7.66761 38.748 7.625 36.8645H12.9815C13.0412 37.7424 13.2926 38.4753 13.7358 39.0634C14.1875 39.6429 14.7884 40.0819 15.5384 40.3801C16.2969 40.6699 17.1534 40.8148 18.108 40.8148C19.0455 40.8148 19.8594 40.6784 20.5497 40.4057C21.2486 40.133 21.7898 39.7537 22.1733 39.2679C22.5568 38.7821 22.7486 38.2239 22.7486 37.5932C22.7486 37.0051 22.5739 36.5108 22.2244 36.1103C21.8835 35.7097 21.3807 35.3688 20.7159 35.0875C20.0597 34.8063 19.2543 34.5506 18.2997 34.3205L15.4489 33.6046C13.2415 33.0677 11.4986 32.2282 10.2202 31.0861C8.94176 29.9441 8.30682 28.4057 8.31534 26.4711C8.30682 24.8858 8.72869 23.5009 9.58097 22.3162C10.4418 21.1316 11.6222 20.2069 13.1222 19.5421C14.6222 18.8773 16.3267 18.5449 18.2358 18.5449C20.179 18.5449 21.875 18.8773 23.3239 19.5421C24.7813 20.2069 25.9148 21.1316 26.7244 22.3162C27.5341 23.5009 27.9517 24.873 27.9773 26.4327H22.6719Z" fill="white"/>
</svg>
