<svg width="48" height="48" viewBox="0 0 48 48" fill="none" xmlns="http://www.w3.org/2000/svg">
<path d="M5.22667 25.4669C5.39259 26.6569 5.71852 27.5464 6.20445 28.1355C7.09333 29.2077 8.6163 29.7438 10.7733 29.7438C12.0652 29.7438 13.1141 29.6024 13.92 29.3197C15.4489 28.7777 16.2133 27.7703 16.2133 26.2975C16.2133 25.4374 15.8341 24.7717 15.0756 24.3004C14.317 23.8409 13.1259 23.4344 11.5022 23.0809L8.72889 22.4624C6.00296 21.8497 4.11852 21.184 3.07556 20.4653C1.30963 19.2635 0.426667 17.3842 0.426667 14.8274C0.426667 12.4945 1.28 10.5563 2.98667 9.01286C4.69333 7.46937 7.2 6.69763 10.5067 6.69763C13.2681 6.69763 15.6207 7.42814 17.5644 8.88914C19.52 10.3384 20.5452 12.4474 20.64 15.2162H15.3778C15.283 13.6492 14.5956 12.5358 13.3156 11.876C12.4622 11.44 11.4015 11.222 10.1333 11.222C8.72296 11.222 7.59704 11.5048 6.75556 12.0704C5.91407 12.6359 5.49333 13.4253 5.49333 14.4386C5.49333 15.3694 5.90815 16.0646 6.73778 16.5241C7.27111 16.8304 8.40889 17.1898 10.1511 17.6022L14.6667 18.6802C16.6459 19.1515 18.1393 19.7819 19.1467 20.5713C20.7111 21.7967 21.4933 23.5699 21.4933 25.891C21.4933 28.271 20.5748 30.2505 18.7378 31.8293C16.9126 33.3964 14.3289 34.1799 10.9867 34.1799C7.57333 34.1799 4.88889 33.4081 2.93333 31.8647C0.977778 30.3094 0 28.1768 0 25.4669H5.22667Z" fill="#FF6275"/>
<path d="M25.92 37.202L26.56 37.2374C27.0578 37.261 27.5319 37.2433 27.9822 37.1844C28.4326 37.1255 28.8119 36.99 29.12 36.7779C29.4163 36.5776 29.6889 36.1593 29.9378 35.5231C30.1985 34.8868 30.3052 34.498 30.2578 34.3566L23.1467 14.2442H28.7822L33.0133 28.4537L37.0133 14.2442H42.4L35.7511 33.1902C34.4711 36.8427 33.4578 39.1049 32.7111 39.9768C31.9644 40.8604 30.4711 41.3023 28.2311 41.3023C27.7807 41.3023 27.4193 41.2964 27.1467 41.2846C26.8741 41.2846 26.4652 41.2669 25.92 41.2316V37.202Z" fill="#FF6275"/>
<path d="M42.6133 28.2416H48V33.5083H42.6133V28.2416Z" fill="#FF6275"/>
</svg>
